<?xml version="1.0" encoding="UTF-8" standalone="no"?>
<!-- Created with Inkscape (http://www.inkscape.org/) -->

<svg
   width="210mm"
   height="297mm"
   viewBox="0 0 210 297"
   version="1.1"
   id="svg5"
   inkscape:version="1.2.1 (9c6d41e410, 2022-07-14)"
   sodipodi:docname="рисунок1.svg"
   xmlns:inkscape="http://www.inkscape.org/namespaces/inkscape"
   xmlns:sodipodi="http://sodipodi.sourceforge.net/DTD/sodipodi-0.dtd"
   xmlns:xlink="http://www.w3.org/1999/xlink"
   xmlns="http://www.w3.org/2000/svg"
   xmlns:svg="http://www.w3.org/2000/svg">
  <sodipodi:namedview
     id="namedview7"
     pagecolor="#ffffff"
     bordercolor="#000000"
     borderopacity="0.25"
     inkscape:showpageshadow="2"
     inkscape:pageopacity="0.0"
     inkscape:pagecheckerboard="0"
     inkscape:deskcolor="#d1d1d1"
     inkscape:document-units="mm"
     showgrid="false"
     inkscape:zoom="5.9651515"
     inkscape:cx="170.23876"
     inkscape:cy="368.6411"
     inkscape:window-width="1920"
     inkscape:window-height="1017"
     inkscape:window-x="-8"
     inkscape:window-y="-8"
     inkscape:window-maximized="1"
     inkscape:current-layer="text809" />
  <defs
     id="defs2">
    <linearGradient
       inkscape:collect="always"
       id="linearGradient5277">
      <stop
         style="stop-color:#ffffff;stop-opacity:1;"
         offset="0.19502871"
         id="stop5273" />
      <stop
         style="stop-color:#c0f10b;stop-opacity:1;"
         offset="1"
         id="stop5275" />
    </linearGradient>
    <radialGradient
       inkscape:collect="always"
       xlink:href="#linearGradient5277"
       id="radialGradient5279"
       cx="51.895161"
       cy="97.03891"
       fx="51.895161"
       fy="97.03891"
       r="7.8951612"
       gradientTransform="matrix(1,0,0,0.89325842,0.08870968,7.7062806)"
       gradientUnits="userSpaceOnUse" />
  </defs>
  <g
     inkscape:label="Слой 1"
     inkscape:groupmode="layer"
     id="layer1">
    <circle
       style="fill:#ffff00;stroke-width:0.264583"
       id="path290"
       cx="29.274191"
       cy="26.790321"
       r="14.725806" />
    <rect
       style="fill:#d45500;stroke-width:0.264583"
       id="rect344"
       width="24.483871"
       height="24.483871"
       x="52.161289"
       y="17.741936" />
    <path
       sodipodi:type="spiral"
       style="display:none;fill:#ffffff;fill-rule:evenodd;stroke:#000000;stroke-width:0.264583"
       id="path399"
       sodipodi:cx="105.3871"
       sodipodi:cy="19.870966"
       sodipodi:expansion="1"
       sodipodi:revolution="3"
       sodipodi:radius="25.808266"
       sodipodi:argument="-17.60051"
       sodipodi:t0="0"
       d="m 105.3871,19.870966 c 0.40919,1.227582 -1.45287,1.157231 -2.04032,0.680106 -1.59195,-1.292976 -0.73296,-3.730639 0.68011,-4.760752 2.52764,-1.84263 6.01024,-0.46525 7.48118,2.040327 2.15866,3.677033 0.20512,8.32638 -3.40054,10.201611 -4.80579,2.499387 -10.656224,-0.05084 -12.922044,-4.76076 -2.851304,-5.926954 0.30446,-12.992769 6.120974,-15.6424694 7.04458,-3.2091421 15.33314,0.5566912 18.3629,7.4811924 3.57047,8.160284 -0.80804,17.675884 -8.84141,21.083328 C 101.55311,40.127578 90.807726,35.13474 87.024194,25.991924 82.725105,15.603276 88.33336,3.6262413 98.586035,-0.53226299 110.08799,-5.1974763 123.29799,1.0269652 127.83065,12.389795 c 5.03212,12.614894 -1.80907,27.058833 -14.28227,31.965046"
       transform="translate(0,7.8064516)"
       inkscape:label="path399" />
    <text
       xml:space="preserve"
       style="font-size:3.175px;fill:#000000;stroke-width:0.264583"
       id="text455"><textPath
         xlink:href="#path290"
         id="textPath465"><tspan
           id="tspan453"
           style="stroke-width:0.264583">Апельсин</tspan></textPath></text>
    <text
       xml:space="preserve"
       style="font-size:3.175px;fill:#000000;stroke-width:0.264583"
       x="55.964279"
       y="30.557915"
       id="text459"><tspan
         sodipodi:role="line"
         id="tspan457"
         style="stroke-width:0.264583"
         x="55.964279"
         y="30.557915">Мандарин</tspan></text>
    <text
       xml:space="preserve"
       style="font-size:3.175px;fill:#000000;stroke-width:0.264583"
       id="text463"><textPath
         xlink:href="#path399"
         id="textPath468"><tspan
           id="tspan461"
           style="stroke-width:0.264583">Абрикосы я очень сильно люблю</tspan></textPath></text>
    <path
       style="display:none;fill:#800000;stroke-width:0.264583"
       d="m 28.478156,85.183555 c 0,-0.167272 -0.0328,-0.337793 0,-0.501816 0.210222,-1.05111 0.259318,-0.518636 0.752726,-1.505453 0.431241,-0.862483 0.622991,-1.871826 1.003635,-2.759998 0.147339,-0.343792 0.354479,-0.659845 0.501818,-1.003636 0.104184,-0.243097 0.132629,-0.516168 0.250909,-0.752727 0.13486,-0.269719 0.383029,-0.475554 0.501818,-0.752726 0.240366,-0.560853 0.394325,-1.720577 0.752726,-2.258179 0.19683,-0.295243 0.531061,-0.475644 0.752727,-0.752726 0.350485,-0.438108 0.501818,-1.003636 0.752726,-1.505453 0.432188,-0.864375 0.89739,-1.74901 1.505454,-2.509089 1.133877,-1.417346 2.321176,-2.049269 3.763632,-3.010908 0.501819,-0.334544 0.966015,-0.733917 1.505453,-1.003636 1.031496,-0.515747 0.449601,-0.07493 1.505455,-0.250907 0.260882,-0.04348 0.491842,-0.207428 0.752726,-0.250909 0.247494,-0.04125 0.506691,0.04921 0.752727,0 0.183382,-0.03668 0.318431,-0.214231 0.501816,-0.25091 0.428366,-0.08567 1.822077,-0.07268 2.258179,0 0.260885,0.04348 0.491845,0.207431 0.752727,0.25091 0.412493,0.06875 0.844483,-0.08201 1.254545,0 0.597056,0.119411 1.178727,0.309271 1.756363,0.501816 0.354838,0.118282 0.636865,0.428466 1.003636,0.50182 0.246036,0.04921 0.509307,-0.06085 0.752726,0 0.07997,0.02 0.865262,0.660476 1.003633,0.752726 0.167275,0.08364 0.334547,0.167272 0.50182,0.25091 0.08363,0 0.176101,-0.0374 0.250909,0 0.465921,0.23296 0.845979,0.948121 1.254543,1.254543 0.299226,0.224419 0.704409,0.277397 1.003636,0.501816 0.378495,0.283872 0.625139,0.719765 1.003636,1.003636 0.390142,0.292608 0.84877,0.482211 1.254543,0.752727 0.598633,0.399089 1.146255,0.873228 1.756363,1.254545 0.475768,0.297355 1.056613,0.416097 1.505452,0.752727 0.189249,0.141935 0.298972,0.380108 0.501817,0.501816 0.226793,0.136076 0.532667,0.104201 0.752729,0.25091 0.295243,0.196829 0.463981,0.546481 0.752726,0.752726 0.836076,0.597197 1.929435,0.882531 2.759996,1.505453 0.99319,0.744895 0.01603,0.266946 1.003636,1.254546 0.213231,0.21323 0.521065,0.308766 0.752727,0.501816 0.272594,0.227164 0.475644,0.531061 0.752726,0.752727 0.146037,0.116829 0.352205,0.1387 0.501819,0.250909 0.99382,0.745366 0.111607,0.202235 0.752727,1.003636 0.221665,0.277083 0.480131,0.525563 0.752726,0.752727 0.231661,0.19305 0.571794,0.260572 0.752726,0.501816 0.100362,0.133819 -0.07481,0.352206 0,0.50182 0.23332,0.46664 0.964724,0.819814 1.254543,1.254543 0.311216,0.46682 0.356005,1.108731 0.752727,1.505452 0.153701,0.153702 0.656656,0.213604 0.752726,0.50182 0.0529,0.158686 -0.0529,0.343127 0,0.501816 0.133818,0.401455 0.869818,0.602182 1.003636,1.003636 0.105794,0.317376 -0.06561,0.675588 0,1.003634 0.0458,0.228999 0.487804,1.519468 0.25091,1.756362 -0.05914,0.05914 -0.176102,-0.0374 -0.25091,0 -0.105791,0.0529 -0.138697,0.213506 -0.250907,0.25091 -0.317378,0.105794 -0.669092,0 -1.003636,0 -1.373219,0 -2.010876,-0.956337 -3.010908,-1.756362 -0.293354,-0.455338 -0.864399,-0.460119 -1.254543,-0.752727 -1.804781,-1.353587 0.529513,0.278604 -0.752726,-1.003636 -0.132242,-0.132239 -0.369578,-0.118668 -0.50182,-0.250907 -0.132239,-0.132241 -0.118668,-0.369578 -0.250907,-0.501819 -0.295698,-0.295699 -0.682379,-0.485013 -1.003636,-0.752727 -0.272595,-0.22716 -0.457483,-0.555897 -0.752726,-0.752726 -0.155607,-0.103738 -0.369578,-0.118668 -0.501817,-0.25091 -0.05914,-0.05914 0.04639,-0.181318 0,-0.250907 -0.13122,-0.196828 -0.334547,-0.334547 -0.501819,-0.501819 -0.08364,-0.250907 -0.114835,-0.525936 -0.25091,-0.752726 -0.158906,-0.264843 -0.893961,-0.674619 -1.003633,-1.003636 -0.0529,-0.158687 0.05289,-0.343128 0,-0.501817 -0.0374,-0.11221 -0.185301,-0.152495 -0.25091,-0.25091 -0.103738,-0.155606 -0.118668,-0.369575 -0.250909,-0.501816 -0.05914,-0.05914 -0.213506,0.0748 -0.250908,0 -0.07481,-0.149614 0.07481,-0.352206 0,-0.501817 -0.0374,-0.07481 -0.176104,0.0374 -0.250909,0 -0.105794,-0.0529 -0.152495,-0.185301 -0.25091,-0.25091 -0.155607,-0.103737 -0.34621,-0.147171 -0.501817,-0.250909 -0.492955,-0.328637 -1.877851,-2.131402 -2.258179,-2.258179 -0.158689,-0.0529 -0.34313,0.0529 -0.501819,0 C 59.344751,77.072443 58.73441,76.371624 58.587217,76.150837 58.483479,75.99523 58.479979,75.768744 58.33631,75.64902 57.961663,75.336814 57.462579,75.200943 57.081764,74.896294 56.619961,74.526851 56.276243,74.026624 55.827221,73.641748 53.702874,71.82088 53.976752,72.220965 52.063587,70.881752 51.720999,70.641939 51.386497,70.39026 51.059954,70.129023 50.875232,69.981248 50.769719,69.733 50.558134,69.627207 c -0.0748,-0.0374 -0.176101,0.0374 -0.250909,0 -0.105791,-0.0529 -0.152493,-0.185299 -0.250907,-0.25091 -0.311214,-0.207476 -0.692423,-0.294341 -1.003636,-0.501817 -0.09842,-0.06561 -0.145116,-0.198011 -0.25091,-0.250909 -0.07481,-0.0374 -0.176101,0.0374 -0.250907,0 -0.105794,-0.0529 -0.145119,-0.198012 -0.25091,-0.250907 -0.0748,-0.0374 -0.176101,0.0374 -0.250909,0 -0.06982,-0.03491 -0.682903,-0.466908 -0.752727,-0.50182 -0.22738,-0.113689 -1.031893,0 -1.254543,0 -0.222652,0 -1.027162,-0.113689 -1.254545,0 -0.415849,0.207926 -0.468361,0.71927 -0.752727,1.003636 -0.26448,0.26448 -0.704408,0.277397 -1.003636,0.501817 -0.189246,0.141936 -0.359881,0.312571 -0.501816,0.501819 -0.11221,0.149614 -0.101296,0.389607 -0.25091,0.501817 -0.211585,0.158689 -0.525936,0.114834 -0.752726,0.25091 -0.405697,0.243416 -0.669089,0.669089 -1.003636,1.003636 -1.27149,1.271489 0.374033,-0.22442 -1.254543,0.752726 -0.327205,0.196323 -1.959053,1.859343 -2.25818,2.258179 -0.11221,0.149614 -0.118669,0.369578 -0.250909,0.501817 -0.132241,0.132241 -0.389608,0.101295 -0.501818,0.250909 -0.158689,0.211585 -0.114834,0.525936 -0.250909,0.752727 -0.243417,0.405696 -0.760218,0.597939 -1.003635,1.003636 -0.136075,0.22679 -0.114835,0.525936 -0.250909,0.752726 -0.121709,0.202848 -0.334545,0.334544 -0.501818,0.501817 -0.08364,0.250909 -0.132629,0.516167 -0.250909,0.752726 -0.105792,0.211587 -0.396025,0.290235 -0.501817,0.501819 -0.0374,0.07481 0.0374,0.176102 0,0.25091 -0.200919,0.401836 -0.752328,0.626674 -1.003636,1.003633 -0.103738,0.155607 -0.191769,0.324401 -0.250909,0.50182 -0.02645,0.07934 0.07481,0.213505 0,0.250907 -0.149613,0.07481 -0.352204,-0.07481 -0.501817,0 -0.07481,0.0374 0.05914,0.19177 0,0.250909 -0.132241,0.132242 -0.346211,0.147172 -0.501818,0.25091 -0.371195,0.247462 -0.606406,0.805021 -1.003636,1.003636 -0.07481,0.0374 -0.176102,-0.0374 -0.250908,0 -0.211585,0.105791 -0.370599,0.304988 -0.501818,0.501817 -0.152802,0.229203 -0.214171,0.608904 -0.501818,0.752726 -0.07481,0.0374 -0.191769,-0.05914 -0.250908,0 -0.05914,0.05914 0.02645,0.171564 0,0.25091 -0.05914,0.177419 -0.167273,0.334544 -0.250909,0.501816 z"
       id="path636" />
    <path
       style="display:none;fill:#800000;stroke-width:0.264583"
       d="m 80.667198,64.358121 c -0.152233,1.830519 0.854924,3.391855 1.505453,5.018177 0.213646,0.53412 1.348105,3.057686 1.756362,3.261815 0.07481,0.0374 0.176102,-0.0374 0.250907,0 0.211585,0.105794 0.2774,0.427011 0.50182,0.501819 0.317375,0.105791 0.686257,-0.105793 1.003636,0 0.112209,0.0374 0.138697,0.213506 0.250907,0.250907 0.133032,0.04434 1.840904,0.05546 2.007272,0 0.177419,-0.05914 0.34621,-0.147169 0.501816,-0.250907 0.09842,-0.06561 0.136163,-0.222223 0.25091,-0.250909 0.243417,-0.06085 0.50669,0.04921 0.752726,0 0.384615,-0.07692 1.190673,-0.516642 1.505453,-0.752727 0.484513,-0.363386 1.142069,-1.020939 1.505453,-1.505452 0.112209,-0.149614 0.118668,-0.369578 0.250909,-0.50182 0.05914,-0.05914 0.213506,0.07481 0.25091,0 0.07481,-0.149611 -0.0529,-0.343127 0,-0.501816 0.07481,-0.22442 0.396026,-0.290232 0.501817,-0.501817 0.0374,-0.07481 -0.02646,-0.171566 0,-0.25091 0.300209,-0.900628 1.248481,-1.967097 2.007272,-2.509088 0.30436,-0.217403 0.69242,-0.294341 1.003633,-0.501817 0.39366,-0.26244 0.609978,-0.741198 1.003636,-1.003636 0.06959,-0.0464 0.171564,0.02646 0.25091,0 0.177419,-0.05914 0.320384,-0.205552 0.501816,-0.25091 0.092,-0.02299 1.381443,-0.06201 1.505453,0 0.211587,0.105794 0.290231,0.396026 0.501821,0.501817 0.0748,0.0374 0.1761,-0.0374 0.25091,0 0.0364,0.01818 1.23626,1.701504 1.25454,1.756362 0.36212,1.08634 -0.47966,-0.09222 0.25091,1.003636 0.0656,0.09841 0.21351,0.1387 0.25091,0.25091 0.0529,0.158689 -0.0328,0.337794 0,0.501817 0.42252,2.112571 0.004,0.0078 0.50182,1.003636 0.0423,0.08455 0.20616,0.869394 0.25091,1.003636 0.0591,0.177419 0.20555,0.320384 0.25091,0.501816 0,0.167273 0,0.334545 0,0.50182 0.0836,0.08364 0.22222,0.13616 0.25091,0.250907 0.0609,0.243416 -0.0492,0.50669 0,0.752726 0.16709,0.835446 0.35851,0.215204 0.75272,1.003636 0.0748,0.149614 -0.0928,0.362638 0,0.501817 0.10374,0.155609 0.39808,0.0953 0.50182,0.250909 0.79501,1.192517 -0.96366,-0.210928 0.25091,1.003636 0.13224,0.132242 0.36958,0.118669 0.50182,0.25091 0.26448,0.26448 0.2774,0.704408 0.50182,1.003634 0.28387,0.378494 0.59793,0.760219 1.00363,1.003636 1.08245,0.64947 0.38007,0.03229 1.25454,0.250909 0.18144,0.04536 0.32039,0.20555 0.50182,0.25091 0.16228,0.04057 0.34313,-0.0529 0.50182,0 0.11221,0.0374 0.13616,0.222221 0.25091,0.250907 0.30563,0.07641 1.40753,0.08721 1.75636,0 0.18143,-0.04536 0.32039,-0.20555 0.50182,-0.250907 0.16228,-0.04057 0.33954,0.04057 0.50182,0 0.60733,-0.151834 0.50374,-0.377809 1.00363,-0.752729 0.61835,-0.463757 1.39219,-0.762474 2.00727,-1.254543 0.36945,-0.295556 0.62514,-0.719765 1.00364,-1.003636 0.7327,-0.549532 0.34515,0.125246 1.00363,-0.752727 0.11221,-0.149613 0.1387,-0.352205 0.25091,-0.501816 0.38267,-0.510223 1.74261,-1.871499 2.25818,-2.258179 0.24125,-0.180936 0.5395,-0.288587 0.75273,-0.50182 0.13224,-0.132241 0.1387,-0.352205 0.25091,-0.501816 0.14193,-0.189249 0.38011,-0.298971 0.50181,-0.50182 0.13608,-0.22679 0.11484,-0.525936 0.25091,-0.752726 0.18257,-0.304271 0.45749,-0.555897 0.75273,-0.752726 0.15561,-0.103738 0.36958,-0.118669 0.50182,-0.25091 0.13224,-0.132239 0.11867,-0.369575 0.25091,-0.501817 0.0591,-0.05914 0.1761,0.0374 0.25091,0 0.10579,-0.0529 0.14511,-0.198011 0.2509,-0.250909 0.26384,-0.131914 0.95317,0 1.25455,0 0.28537,0 1.46805,-0.144156 1.75636,0 0.10579,0.0529 0.15249,0.185301 0.25091,0.250909 0.31121,0.207476 0.6488,0.383538 1.00363,0.501817 0.46349,0.154496 0.11896,-0.38286 0.75273,0.25091 0.0591,0.05914 -0.0591,0.19177 0,0.250909 0.13224,0.132242 0.36958,0.118669 0.50182,0.25091 0.26448,0.26448 0.2774,0.704408 0.50182,1.003633 0.22131,0.295088 0.82702,0.650418 1.00363,1.003636 0.0374,0.07481 -0.0464,0.181319 0,0.25091 0.13122,0.196829 0.41396,0.282178 0.50182,0.501817 0.12425,0.310618 -0.14961,0.704411 0,1.003636 0.0349,0.06982 0.46691,0.682905 0.50182,0.752726 0.0779,0.155774 0.0368,1.144148 0,1.254546 -0.20457,0.61369 -0.29726,-0.111874 -0.50182,0.501816 -0.0529,0.15869 0.0928,0.362638 0,0.501817 -0.10374,0.155607 -0.36958,0.118668 -0.50182,0.25091 -0.0591,0.05914 0.0591,0.19177 0,0.250909 -0.13224,0.132239 -0.34621,0.14717 -0.50182,0.250908 -0.19683,0.13122 -0.30498,0.370599 -0.50181,0.501819 -0.15561,0.103738 -0.34621,0.147169 -0.50182,0.250907 -0.0984,0.06561 -0.14512,0.198014 -0.25091,0.25091 -0.23656,0.118279 -0.51617,0.13263 -0.75273,0.250909 -0.10579,0.0529 -0.15249,0.185298 -0.25091,0.25091 -0.42613,0.284086 -1.52492,0.883047 -2.00726,1.003633 -0.16228,0.04057 -0.33954,-0.04057 -0.50182,0 -0.18144,0.04536 -0.32039,0.205552 -0.50182,0.25091 -0.16228,0.04057 -0.33954,-0.04057 -0.50182,0 -0.45413,-0.151231 -0.46665,0.406458 -0.75273,0.501817 -0.15868,0.0529 -0.33953,-0.04057 -0.50181,0 -0.18144,0.04536 -0.33455,0.167274 -0.50182,0.250909 -0.25091,0.08364 -0.49338,0.199041 -0.75273,0.25091 -0.32805,0.06561 -0.68626,-0.105794 -1.00363,0 -0.11221,0.0374 -0.16727,0.167272 -0.25091,0.25091 -0.16727,0.08363 -0.32039,0.205549 -0.50182,0.250907 -0.16228,0.04057 -0.33779,-0.0328 -0.50182,0 -1.30527,0.261056 -0.2509,0.167272 -1.25454,0.501819 -0.32715,0.109048 -0.68346,0.122838 -1.00364,0.250907 -0.10982,0.04393 -0.1387,0.213505 -0.25091,0.25091 -0.15868,0.0529 -0.33954,-0.04057 -0.50181,0 -0.18144,0.04536 -0.32039,0.205549 -0.50182,0.250909 -0.16228,0.04057 -0.33954,-0.04057 -0.50182,0 -0.43748,0.109368 -0.81706,0.392446 -1.25454,0.501817 -0.24342,0.06085 -0.5147,-0.07934 -0.75273,0 -0.17742,0.05914 -0.32039,0.205552 -0.50182,0.25091 -0.63941,0.159853 -1.60511,0 -2.25818,0 -0.35569,0 -1.86569,0.130828 -2.25818,0 -1.00363,-0.334545 0.0507,-0.240763 -1.25454,-0.50182 -0.16402,-0.0328 -0.3378,0.03281 -0.50182,0 -0.44165,-0.08833 -0.81289,-0.413488 -1.25454,-0.501816 -0.24604,-0.04921 -0.50523,0.04125 -0.75273,0 -0.71095,-0.118491 -1.56339,-0.411801 -2.00727,-1.003636 -0.22442,-0.299226 -0.23734,-0.739154 -0.50182,-1.003636 -0.13224,-0.132239 -0.39808,-0.0953 -0.50182,-0.250907 -0.0928,-0.139179 0.0406,-0.33954 0,-0.50182 -0.0907,-0.362865 -0.38353,-0.648795 -0.50181,-1.003633 -0.0794,-0.238035 0.0609,-0.50931 0,-0.752729 -0.0454,-0.18143 -0.21424,-0.318431 -0.25091,-0.501817 -0.0656,-0.328049 0.10579,-0.686258 0,-1.003636 -0.21762,-0.652862 -0.72084,-1.329391 -1.254551,-1.756362 -0.235474,-0.188378 -0.539493,-0.288584 -0.752726,-0.501817 -0.132239,-0.132241 -0.118669,-0.369578 -0.250907,-0.501817 -0.132242,-0.132241 -0.334547,-0.167272 -0.50182,-0.250909 -0.167272,-0.08364 -0.320384,-0.20555 -0.501816,-0.25091 -0.16228,-0.04057 -0.33954,0.04057 -0.50182,0 -0.18143,-0.04536 -0.324397,-0.191767 -0.501816,-0.250907 -0.245362,-0.08179 -0.982118,-0.09081 -1.254543,0 -0.177422,0.05914 -0.324401,0.191767 -0.50182,0.250907 -0.07934,0.02646 -0.191767,-0.05914 -0.250907,0 -0.132241,0.132242 -0.0953,0.398082 -0.250909,0.501819 -0.139179,0.09278 -0.362638,-0.09279 -0.50182,0 -0.155606,0.103738 -0.118668,0.369576 -0.250907,0.501817 -0.132241,0.132242 -0.346212,0.147172 -0.501819,0.25091 -0.386014,0.257341 -0.617619,0.746291 -1.003633,1.003636 -0.15561,0.103738 -0.346213,0.147169 -0.50182,0.250907 -0.196828,0.13122 -0.304988,0.370599 -0.501816,0.501819 -0.463217,0.308811 -1.042236,0.443915 -1.505453,0.752726 -0.459097,0.306065 -0.02503,0.319895 -0.752726,0.501817 -0.16228,0.04057 -0.33954,-0.04057 -0.50182,0 -0.362865,0.09072 -0.64077,0.411102 -1.003636,0.501817 -0.162277,0.04057 -0.339537,-0.04057 -0.501816,0 -0.181433,0.04536 -0.324398,0.19177 -0.501817,0.25091 -0.2706,0.0902 -1.216652,0.0722 -1.505455,0 -0.18143,-0.04536 -0.324398,-0.191768 -0.501817,-0.25091 -0.07934,-0.02646 -0.176101,0.0374 -0.25091,0 -0.574688,-0.287343 -0.659598,-1.046737 -1.003633,-1.505453 -0.141936,-0.189246 -0.380111,-0.298968 -0.501819,-0.501817 -0.649471,-1.08245 -0.03229,-0.380073 -0.250907,-1.254545 -0.02957,-0.118253 -0.433716,-1.152388 -0.50182,-1.254543 -0.06561,-0.09842 -0.213505,-0.1387 -0.250909,-0.25091 -0.105791,-0.317376 0.105793,-0.686258 0,-1.003633 -0.0374,-0.112213 -0.213506,-0.1387 -0.250907,-0.25091 -0.105794,-0.317378 0.08114,-0.679079 0,-1.003636 -0.04536,-0.181433 -0.205553,-0.320384 -0.25091,-0.501817 -0.137512,-0.550052 0.09349,-1.195432 0,-1.756362 -0.05669,-0.340151 -0.194218,-0.663488 -0.25091,-1.003636 -0.181681,-1.090091 0.163214,-1.517631 -0.250907,-2.759998 z"
       id="path701" />
    <g
       aria-label="Люблю есть фрукты"
       id="text809"
       style="font-size:3.175px;fill:#00ff00;stroke-width:0.264583">
      <path
         d="m 28.961379,83.244115 -0.109204,0.286876 -1.902363,-0.724167 -0.296726,0.779491 q 0.162067,0.06667 0.316685,0.135481 0.15372,0.06681 0.275219,0.118037 0.305645,0.12962 0.495109,0.23326 0.190016,0.102192 0.302971,0.193295 0.114404,0.09166 0.172236,0.175047 0.05693,0.08139 0.09331,0.173203 0.03728,0.09381 0.03668,0.178185 -4.8e-5,0.08292 -0.03755,0.181445 -0.01158,0.03043 -0.03103,0.07279 -0.018,0.04291 -0.02461,0.0603 l -0.278183,-0.105895 0.0077,-0.02029 q 0.007,-0.01394 0.01669,-0.03512 0.0097,-0.02118 0.018,-0.04291 0.01985,-0.05216 0.02157,-0.10459 0.0017,-0.05243 -0.01948,-0.09699 -0.06371,-0.142028 -0.281675,-0.279741 -0.217413,-0.139162 -0.645801,-0.325459 -0.139231,-0.06129 -0.37119,-0.157888 -0.231407,-0.09804 -0.424798,-0.178294 l 0.509068,-1.337305 z"
         id="path821" />
      <path
         d="m 29.222304,80.713861 q -0.314063,-0.111634 -0.511999,-0.04543 -0.199397,0.06569 -0.275723,0.280417 -0.07944,0.223496 0.0421,0.399971 0.120605,0.174495 0.420061,0.280936 0.30968,0.110077 0.511057,0.04345 0.199916,-0.06715 0.275723,-0.280416 0.07581,-0.213271 -0.03594,-0.389552 -0.112686,-0.178261 -0.425288,-0.289376 z m -0.346174,1.214595 -0.120461,0.338896 0.739143,0.262729 -0.09762,0.274623 -1.631665,-0.579979 0.09762,-0.274622 0.661723,0.23521 0.123057,-0.346199 q -0.324454,-0.156461 -0.437894,-0.420546 -0.114382,-0.266066 -0.01106,-0.556757 0.119942,-0.337434 0.421876,-0.45552 0.301934,-0.118085 0.702181,0.02418 0.395865,0.140711 0.55803,0.420471 0.162164,0.279759 0.04015,0.623037 -0.115268,0.324288 -0.395194,0.445261 -0.279406,0.119511 -0.649885,0.0092 z"
         id="path823" />
      <path
         d="m 29.478677,78.568562 q 0.142414,-0.0572 0.306907,-0.04766 0.163067,0.0089 0.354125,0.09049 0.356451,0.152169 0.500407,0.466472 0.143957,0.314302 0.01066,0.626554 -0.06574,0.153987 -0.172456,0.261823 -0.108145,0.107227 -0.255461,0.152219 -0.184146,0.05624 -0.413809,0.02562 -0.23048,-0.03265 -0.527047,-0.159257 -0.106936,-0.04565 -0.212462,-0.102499 -0.106952,-0.05746 -0.245722,-0.15884 -0.120427,-0.08512 -0.219916,-0.19165 -0.09888,-0.107952 -0.142189,-0.21578 -0.06026,-0.147091 -0.05178,-0.340692 0.0077,-0.195636 0.101507,-0.48259 0.03811,-0.116899 0.07379,-0.216288 0.03426,-0.1 0.06143,-0.179427 l 0.246664,0.105301 q -0.03447,0.09654 -0.06833,0.19165 -0.03325,0.09369 -0.06365,0.18859 -0.06223,0.189199 -0.08133,0.356351 -0.01849,0.165727 0.02216,0.263991 0.04331,0.107828 0.149492,0.198671 0.105368,0.08881 0.210286,0.147083 -0.03134,-0.139804 -0.0285,-0.288613 0.002,-0.150844 0.0635,-0.29485 0.05722,-0.134026 0.15437,-0.239202 0.09715,-0.105176 0.227362,-0.157472 z m 0.560458,0.321856 q -0.263774,-0.112605 -0.447694,-0.0411 -0.185347,0.0709 -0.274213,0.279066 -0.05296,0.124045 -0.06173,0.255153 -0.0102,0.130498 0.01157,0.261156 0.03443,0.01807 0.08169,0.04162 0.04644,0.02151 0.08637,0.03855 0.24809,0.10591 0.419729,0.130298 0.171639,0.02439 0.29515,-0.01222 0.104993,-0.03272 0.170655,-0.09571 0.06424,-0.0636 0.101974,-0.152002 0.09191,-0.215297 -0.01176,-0.402836 -0.103675,-0.187539 -0.371727,-0.301971 z"
         id="path825"
         style="fill:#d40000" />
      <path
         d="m 31.766001,77.313364 -0.12304,0.26421 -1.347753,-0.627639 -0.272915,0.586041 q 0.114682,0.05854 0.220933,0.113148 0.10625,0.05461 0.19142,0.0994 0.230116,0.119134 0.360181,0.207067 0.128661,0.08728 0.204399,0.167014 0.07143,0.07431 0.106601,0.141992 0.03442,0.06563 0.05574,0.133697 0.01991,0.06742 0.0135,0.13626 -0.0058,0.06744 -0.03782,0.1363 -0.01113,0.02389 -0.03413,0.06961 -0.02235,0.04432 -0.02889,0.05837 l -0.230481,-0.107334 0.0065,-0.01405 q 0.0052,-0.01124 0.01646,-0.03167 0.01122,-0.02043 0.01777,-0.03448 0.01571,-0.03373 0.02223,-0.07344 0.0072,-0.04112 -0.0077,-0.07885 -0.03689,-0.104397 -0.183842,-0.225846 -0.14695,-0.121449 -0.456615,-0.282759 -0.112622,-0.05929 -0.268061,-0.136805 -0.156189,-0.07958 -0.297574,-0.150549 l 0.503289,-1.080732 z"
         id="path827"
         style="fill:#ff2a2a" />
      <path
         d="m 31.881037,74.559187 q -0.286676,-0.170042 -0.493658,-0.143206 -0.208316,0.02604 -0.324577,0.222052 -0.121006,0.204007 -0.03573,0.400591 0.08473,0.194459 0.358077,0.356591 0.282676,0.167669 0.493116,0.141082 0.209106,-0.02738 0.324576,-0.222052 0.115471,-0.194674 0.03978,-0.389179 -0.07624,-0.196629 -0.36158,-0.365879 z m -0.573658,1.125163 -0.183487,0.309344 0.67469,0.400191 -0.148687,0.250675 -1.489385,-0.883425 0.148688,-0.250675 0.60402,0.358274 0.187442,-0.316011 q -0.288239,-0.216031 -0.348684,-0.497022 -0.06099,-0.283116 0.0964,-0.548459 0.182695,-0.308011 0.501721,-0.365723 0.319026,-0.05771 0.684372,0.158992 0.361346,0.214331 0.466583,0.520089 0.105237,0.305758 -0.08062,0.619102 -0.175578,0.29601 -0.473564,0.360795 -0.297195,0.06345 -0.639488,-0.116147 z"
         id="path829"
         style="fill:#ff2a2a" />
      <path
         d="m 33.601652,71.838609 -0.582444,1.13519 q 0.142071,0.07289 0.270219,0.08463 0.126768,0.01103 0.232572,-0.02878 0.103008,-0.03776 0.18636,-0.118703 0.08406,-0.08233 0.144921,-0.20095 0.08068,-0.157244 0.1,-0.347714 0.01864,-0.192557 -0.0074,-0.291283 l 0.0071,-0.01379 0.282763,0.145081 q -0.01206,0.159344 -0.04488,0.315006 -0.03282,0.155662 -0.109962,0.30601 -0.196743,0.383454 -0.514045,0.492474 -0.318681,0.108311 -0.700757,-0.08772 -0.377937,-0.193912 -0.49456,-0.513373 -0.115917,-0.320841 0.05676,-0.657398 0.159942,-0.311729 0.428354,-0.38659 0.26912,-0.07624 0.604298,0.09573 z m -0.328134,0.150507 q -0.204849,-0.103361 -0.368946,-0.05861 -0.163388,0.04337 -0.269545,0.250267 -0.106863,0.208279 -0.0478,0.395405 0.05978,0.185747 0.233354,0.295716 z"
         id="path831" />
      <path
         d="m 35.217772,70.708845 q -0.03277,0.194215 -0.0806,0.317628 -0.04567,0.123022 -0.118099,0.227496 -0.107757,0.155437 -0.242442,0.254479 -0.135959,0.09816 -0.29217,0.127571 -0.156211,0.02941 -0.332573,-0.01551 -0.175479,-0.0462 -0.362767,-0.176035 -0.340178,-0.235829 -0.412034,-0.56483 -0.07313,-0.329884 0.153868,-0.657321 0.08568,-0.123586 0.202219,-0.218227 0.117426,-0.09591 0.236009,-0.160845 l 0.266281,0.184601 -0.0097,0.01401 q -0.172602,0.05578 -0.296297,0.141688 -0.122811,0.08464 -0.197888,0.192932 -0.147504,0.21277 -0.08607,0.42891 0.06232,0.214866 0.315861,0.390634 0.25354,0.175768 0.474065,0.156986 0.220525,-0.01878 0.368912,-0.232827 0.05211,-0.07517 0.08423,-0.162315 0.033,-0.08842 0.04482,-0.170773 0.0094,-0.0652 0.01156,-0.139125 0.0018,-0.07608 -6.17e-4,-0.107952 l 0.0097,-0.01402 z"
         id="path833" />
      <path
         d="m 35.447294,68.529169 -0.445291,0.440443 1.037876,1.049301 -0.207215,0.204958 -1.037876,-1.0493 -0.445292,0.440443 -0.179884,-0.181864 1.097798,-1.085845 z"
         id="path835" />
      <path
         d="m 37.307488,68.343546 q -0.04605,-0.06427 -0.103041,-0.09591 -0.05664,-0.0338 -0.128716,-0.02793 -0.0755,0.0064 -0.148069,0.04887 -0.07131,0.04155 -0.197331,0.131841 l -0.234404,0.167937 0.343098,0.47889 0.229364,-0.164326 q 0.126023,-0.09029 0.188113,-0.15003 0.06119,-0.061 0.08993,-0.127362 0.02819,-0.06978 0.01928,-0.130145 -0.0086,-0.06252 -0.05822,-0.131836 z m 0.241778,-0.178942 q 0.07313,0.102079 0.09114,0.21505 0.01926,0.112068 -0.01429,0.2143 -0.03803,0.122603 -0.113588,0.216784 -0.07556,0.09418 -0.224265,0.200723 l -0.550723,0.394563 -1.008529,-1.407684 0.236924,-0.169744 0.392758,0.548203 0.3201,-0.229334 q 0.15879,-0.113764 0.257484,-0.15968 0.09995,-0.04682 0.232958,-0.04485 0.111918,0.0018 0.208958,0.06007 0.09704,0.05825 0.171078,0.161591 z"
         id="path837"
         style="fill:#00ffff" />
      <path
         d="m 40.571649,65.791618 q 0.115367,0.200121 0.153372,0.383999 0.03723,0.182535 0.0099,0.330704 -0.02597,0.147394 -0.104569,0.262491 -0.07859,0.115097 -0.198129,0.184008 -0.08999,0.05188 -0.17495,0.0597 -0.08362,0.007 -0.150712,0.01173 l 0.356942,0.619166 -0.249815,0.144016 -0.356943,-0.619166 q -0.0587,0.08752 -0.09849,0.142671 -0.03922,0.05303 -0.152038,0.118069 -0.259217,0.149436 -0.537304,0.03954 -0.278087,-0.109894 -0.486368,-0.471186 -0.109174,-0.189376 -0.141964,-0.367313 -0.03356,-0.17928 -0.007,-0.328792 0.02541,-0.145277 0.106117,-0.259805 0.08128,-0.116646 0.191414,-0.180137 0.08058,-0.04646 0.161108,-0.05888 0.08109,-0.01454 0.170132,-0.01218 l -0.372428,-0.646028 0.249815,-0.144016 0.372428,0.646028 q 0.04088,-0.07188 0.108663,-0.146747 0.06779,-0.07487 0.152402,-0.123647 0.265932,-0.153307 0.533843,-0.03934 0.267138,0.112628 0.464579,0.455117 z m -0.242957,0.17764 q -0.147888,-0.25653 -0.325163,-0.352963 -0.177275,-0.09643 -0.359936,0.0089 -0.07387,0.04259 -0.116596,0.08332 -0.04273,0.04074 -0.107984,0.123093 l 0.576838,1.000605 q 0.08016,-0.0068 0.131861,-0.01339 0.05227,-0.0087 0.13017,-0.05357 0.189376,-0.109173 0.209172,-0.313846 0.02037,-0.206791 -0.138362,-0.482126 z M 39.746035,66.9762 39.169198,65.975595 q -0.06632,0.006 -0.129333,0.02088 -0.06379,0.01351 -0.129601,0.05145 -0.181318,0.104528 -0.210358,0.305583 -0.0277,0.200281 0.134902,0.482331 0.150985,0.261903 0.333064,0.357355 0.183421,0.09468 0.364739,-0.0098 0.07118,-0.04104 0.120783,-0.09468 0.05017,-0.05576 0.09264,-0.112458 z"
         id="path839"
         style="fill:#e3dbdb" />
      <path
         d="m 42.902527,65.590717 q 0.02607,0.209221 -0.01226,0.390537 -0.03852,0.179777 -0.132796,0.313384 -0.08735,0.126495 -0.217941,0.206824 -0.129247,0.0786 -0.283087,0.09777 -0.13384,0.01668 -0.246708,0.0011 -0.111331,-0.01581 -0.231302,-0.06335 l 0.08973,0.719967 -0.289218,0.03604 -0.293146,-2.352201 0.289218,-0.03604 0.02243,0.179992 q 0.1033,-0.111298 0.238318,-0.193741 0.136365,-0.08417 0.299435,-0.104496 0.310755,-0.03873 0.512389,0.175173 0.20298,0.212171 0.254937,0.629075 z m -0.297489,0.04489 q -0.03873,-0.310755 -0.16405,-0.451365 -0.125321,-0.14061 -0.345312,-0.113194 -0.124609,0.01553 -0.244047,0.08509 -0.119438,0.06956 -0.223889,0.171632 l 0.121361,0.973803 q 0.129974,0.04004 0.220154,0.04912 0.09172,0.0089 0.204022,-0.0051 0.241528,-0.0301 0.356583,-0.210042 0.115056,-0.179941 0.07518,-0.499927 z"
         id="path841"
         style="fill:#2b1100" />
      <path
         d="m 44.562617,64.266785 -0.593721,2.507585 -0.307086,0.0529 0.19514,-0.766691 -0.959625,-1.506928 0.311669,-0.05369 0.741944,1.174742 0.310705,-1.356071 z"
         id="path843"
         style="fill:#552200" />
      <path
         d="m 46.80773,66.194026 -0.378191,-0.04916 -0.611021,-0.87985 -0.156811,-0.02038 -0.102313,0.787128 -0.289024,-0.03757 0.223211,-1.717231 0.289024,0.03757 -0.09632,0.741008 q 0.142975,0.01858 0.237199,-0.02076 0.09442,-0.04088 0.170706,-0.146651 0.02692,-0.03871 0.0529,-0.08223 0.02772,-0.04486 0.0533,-0.08531 0.102524,-0.16333 0.233629,-0.233836 0.131104,-0.0705 0.355559,-0.04133 l 0.132213,0.01719 -0.03237,0.249052 -0.127601,-0.01659 q -0.121451,-0.01579 -0.197427,0.02749 -0.07424,0.04194 -0.146369,0.163885 -0.08028,0.136519 -0.158851,0.199782 -0.07684,0.06193 -0.1585,0.08883 z"
         id="path845"
         style="fill:#deaa87" />
      <path
         d="m 48.430164,64.935848 -0.625435,-0.03326 -0.07838,1.473796 -0.291044,-0.01548 0.07838,-1.473796 -0.625434,-0.03326 0.01358,-0.255437 1.541913,0.082 z"
         id="path847"
         style="fill:#d4aa00" />
      <path
         d="m 49.848945,66.24278 q 0.02702,-0.0743 0.02093,-0.139205 -0.0041,-0.06583 -0.04967,-0.121987 -0.04795,-0.05868 -0.123974,-0.09457 -0.07457,-0.03536 -0.220265,-0.08834 l -0.256425,-0.09324 -0.201322,0.553644 0.250597,0.09112 q 0.145696,0.05298 0.230067,0.07046 0.0849,0.01603 0.155894,0.0023 0.07351,-0.01616 0.118278,-0.05762 0.04675,-0.04238 0.07589,-0.122517 z m 0.28424,0.09841 q -0.04291,0.118014 -0.12596,0.19669 -0.08159,0.07921 -0.1849,0.109272 -0.122649,0.03788 -0.243046,0.02874 -0.120398,-0.0091 -0.292319,-0.07165 l -0.622121,-0.226222 0.59178,-1.627422 0.273908,0.0996 -0.23046,0.633776 0.355497,0.12927 q 0.183577,0.06675 0.27722,0.12225 0.0951,0.05603 0.16861,0.166887 0.06172,0.09338 0.06848,0.206357 0.0068,0.112981 -0.03669,0.232451 z m 0.680922,-1.024243 0.273908,0.0996 -0.59178,1.627422 -0.273908,-0.0996 z"
         id="path849"
         style="fill:#ffe680" />
      <path
         style="fill:#00ffff;stroke-width:0.0313636"
         d="m 346.51584,266.82877 c -0.87374,-0.32068 -1.86189,-1.14818 -2.23445,-1.8712 -0.50248,-0.97513 -0.41208,-1.97448 0.27776,-3.07055 0.81541,-1.29558 2.21074,-1.56582 3.66885,-0.71055 l 0.5513,0.32337 -1.23032,2.01445 c -0.67668,1.10795 -1.23148,2.04867 -1.2329,2.09049 -10e-4,0.0418 0.21187,0.16184 0.47397,0.26671 1.5884,0.63555 2.95945,-0.37493 3.3203,-2.4471 0.14403,-0.82712 0.17412,-0.87126 0.46744,-0.68577 0.2281,0.14425 0.35458,-0.0564 0.35693,-0.56635 0.003,-0.55107 -0.8896,-1.40801 -2.54678,-2.4463 -0.71717,-0.44933 -1.37617,-0.88192 -1.46445,-0.96131 -0.13246,-0.11913 0.0104,-0.44175 0.81749,-1.84661 0.53789,-0.93624 1.03687,-1.76667 1.10882,-1.8454 0.10008,-0.1095 0.76477,0.22419 2.82761,1.41952 1.48323,0.85947 2.69643,1.61734 2.696,1.68416 -4.3e-4,0.0668 -0.0938,0.26249 -0.20745,0.43481 l -0.20666,0.31331 -2.31152,-1.3451 c -1.27134,-0.73981 -2.37212,-1.34754 -2.44619,-1.35053 -0.0741,-0.003 -0.3468,0.35463 -0.60606,0.79471 -0.85848,1.45716 -0.92535,1.20736 0.59042,2.20571 1.54988,1.02081 2.16764,1.58503 2.474,2.25958 0.27384,0.60293 0.2789,0.89589 0.0247,1.42892 -0.13824,0.28988 -0.25924,0.40105 -0.39102,0.35923 -0.15007,-0.0476 -0.24547,0.12512 -0.44662,0.80883 -0.33525,1.13954 -1.0746,2.15581 -1.89059,2.59871 -0.68653,0.37263 -1.66136,0.43025 -2.4406,0.14426 z m 0.19274,-3.27116 c 0.49987,-0.82333 0.90885,-1.52876 0.90885,-1.5676 0,-0.0388 -0.16887,-0.15796 -0.37526,-0.26469 -1.48542,-0.76814 -3.05136,1.19097 -2.23345,2.7942 0.23718,0.4649 0.59293,0.76875 0.72191,0.61659 0.038,-0.0448 0.47808,-0.75516 0.97795,-1.5785 z"
         id="path1037"
         transform="scale(0.26458333)" />
      <path
         style="fill:#00ffff;stroke-width:0.0156818"
         d="m 346.89802,266.98196 c -1.0526,-0.27596 -2.17148,-1.10696 -2.61774,-1.94422 -0.63489,-1.19119 -0.38421,-2.63146 0.63888,-3.67057 0.93356,-0.94818 2.16661,-0.96235 3.62385,-0.0416 l 0.2736,0.17287 -1.24193,2.04302 -1.24194,2.04302 0.13087,0.10597 c 0.072,0.0583 0.31683,0.16246 0.54412,0.23149 0.52872,0.1606 1.12447,0.13344 1.55802,-0.071 0.85776,-0.40452 1.48649,-1.53449 1.55604,-2.79655 0.0175,-0.3179 0.0485,-0.57799 0.0687,-0.57799 0.0203,0 0.13502,0.0667 0.25495,0.14817 0.28529,0.19386 0.33245,0.18764 0.43481,-0.0574 0.11592,-0.27744 0.10842,-0.40698 -0.0405,-0.69884 -0.35092,-0.68787 -1.05841,-1.25423 -3.31128,-2.65074 -0.44008,-0.2728 -0.81022,-0.50362 -0.82253,-0.51293 -0.0123,-0.009 0.47715,-0.88075 1.08769,-1.93652 l 1.11008,-1.91958 2.76484,1.59812 c 1.52067,0.87897 2.77747,1.60989 2.7929,1.62428 0.0328,0.0306 -0.35566,0.7734 -0.44294,0.84696 -0.0349,0.0294 -0.52189,-0.2185 -1.1854,-0.60353 -2.88228,-1.67257 -3.6666,-2.11433 -3.70819,-2.08863 -0.0601,0.0372 -1.25613,2.10656 -1.23096,2.1299 0.0109,0.0101 0.28647,0.18528 0.61246,0.38934 2.68436,1.68032 3.37323,2.39349 3.37526,3.49428 6e-4,0.32932 -0.0291,0.43904 -0.2044,0.75569 -0.19563,0.35334 -0.30468,0.44143 -0.38518,0.31117 -0.10637,-0.17211 -0.20057,-0.0258 -0.32218,0.50046 -0.30116,1.30328 -1.15126,2.50161 -2.12089,2.98968 -0.61577,0.30995 -1.24769,0.37009 -1.95107,0.18569 z m -0.2315,-3.43028 c 0.48203,-0.794 0.88854,-1.48997 0.90335,-1.5466 0.0365,-0.13947 -0.48192,-0.36133 -0.94171,-0.40302 -0.59557,-0.054 -1.08559,0.2153 -1.46359,0.80437 -0.26454,0.41224 -0.37028,0.75841 -0.37168,1.21677 -10e-4,0.3357 0.0306,0.47054 0.18238,0.77894 0.10099,0.20514 0.29261,0.47145 0.42584,0.59181 0.22687,0.20497 0.24688,0.21195 0.3156,0.11011 0.0404,-0.0598 0.46777,-0.75838 0.94981,-1.55238 z"
         id="path1039"
         transform="scale(0.26458333)" />
      <ellipse
         style="font-size:3.175px;fill:url(#radialGradient5279);fill-opacity:1;stroke-width:0.0700042"
         id="path2158"
         cx="50.209675"
         cy="96.69355"
         rx="7.8951612"
         ry="7.0524192"
         inkscape:label="path2158" />
      <ellipse
         style="fill:#00ff00;stroke-width:0.0700042"
         id="path1405"
         cx="-84.632835"
         cy="-76.432968"
         rx="11.980898"
         ry="5.5199947"
         transform="rotate(-154.8)" />
      <ellipse
         style="font-size:3.175px;fill:#00ff00;stroke-width:0.0700042"
         id="path1405-5"
         cx="-5.8482609"
         cy="118.91705"
         rx="11.980898"
         ry="5.5199947"
         transform="matrix(-0.90482705,0.42577929,0.42577929,0.90482705,0,0)" />
      <text
         xml:space="preserve"
         style="font-size:0.840052px;fill:#aa4400;fill-opacity:1;stroke-width:0.0700042"
         id="text7462"
         transform="rotate(180,50.177282,96.560259)"><textPath
           xlink:href="#path2158"
           id="textPath7618"><tspan
             id="tspan7460"
             style="fill:#aa4400;stroke-width:0.0700042">Ваш любимый солнечный день</tspan></textPath></text>
    </g>
    <g
       aria-label="Обожаю спелые арбузы"
       id="text813"
       style="font-size:3.175px;fill:#00ff00;stroke-width:0.264583"
       inkscape:label="text813">
      <path
         d="m 82.873757,66.044315 q -0.13026,0.164223 -0.340117,0.2739 -0.209607,0.111208 -0.49113,0.15719 -0.281524,0.04598 -0.517402,0.006 -0.234098,-0.03873 -0.404751,-0.150665 -0.177523,-0.115521 -0.287042,-0.295558 -0.10927,-0.178507 -0.149505,-0.42484 -0.03923,-0.240213 0.0081,-0.45058 0.04757,-0.208838 0.176553,-0.37128 0.12898,-0.162443 0.337057,-0.2734 0.208327,-0.109427 0.49138,-0.15566 0.278464,-0.04548 0.510782,-0.008 0.233848,0.0372 0.414431,0.152225 0.171934,0.110151 0.283982,0.296058 0.112299,0.187437 0.150785,0.42306 0.03999,0.244803 -0.0094,0.45236 -0.04757,0.208838 -0.173743,0.36925 z m -0.882728,0.115907 q 0.443705,-0.07247 0.65143,-0.310611 0.209255,-0.238388 0.153026,-0.582642 -0.05673,-0.347314 -0.33096,-0.506731 -0.272451,-0.158137 -0.716156,-0.08566 -0.448295,0.07322 -0.65399,0.314171 -0.204165,0.240698 -0.148686,0.580362 0.05548,0.339664 0.32537,0.501361 0.271671,0.162977 0.719966,0.08975 z"
         id="path1143" />
      <path
         d="m 83.022853,67.660255 q -0.05678,0.14258 -0.177127,0.255126 -0.118918,0.111934 -0.309738,0.194052 -0.356008,0.153204 -0.682895,0.04071 -0.326888,-0.11249 -0.461095,-0.424353 -0.06618,-0.153796 -0.07068,-0.305444 -0.0031,-0.152261 0.06593,-0.289973 0.08626,-0.17214 0.266806,-0.317347 0.182584,-0.144395 0.478783,-0.271861 0.106802,-0.04596 0.220742,-0.08318 0.115364,-0.03783 0.28448,-0.06841 0.144691,-0.02851 0.290445,-0.0271 0.146367,0.0028 0.25432,0.04583 0.148077,0.05779 0.282433,0.197442 0.136394,0.140459 0.279489,0.406303 0.05838,0.108209 0.105748,0.202592 0.04879,0.09377 0.08758,0.168216 l -0.246357,0.106017 q -0.04614,-0.09153 -0.09167,-0.181645 -0.04492,-0.08869 -0.09268,-0.176148 -0.0941,-0.175535 -0.201983,-0.304637 -0.107265,-0.127678 -0.206458,-0.166003 -0.107952,-0.043 -0.246965,-0.02874 -0.136976,0.01506 -0.251529,0.05086 0.122859,0.07371 0.228665,0.178387 0.107842,0.105489 0.169737,0.249316 0.0576,0.133859 0.06677,0.276747 0.0092,0.142888 -0.04275,0.273246 z m -0.619577,0.183929 q 0.263446,-0.113371 0.338492,-0.295876 0.07647,-0.183118 -0.013,-0.391027 -0.05331,-0.12389 -0.142213,-0.220654 -0.08747,-0.09738 -0.197103,-0.171717 -0.03683,0.01247 -0.08647,0.03046 -0.04761,0.0188 -0.08748,0.03596 -0.247782,0.10663 -0.383806,0.214111 -0.136023,0.107481 -0.194682,0.222175 -0.04871,0.0986 -0.04837,0.189589 0.0018,0.09038 0.03976,0.17867 0.09253,0.215029 0.299844,0.269274 0.207309,0.05425 0.475027,-0.06096 z"
         id="path1145" />
      <path
         d="m 83.320228,69.849042 q -0.387951,0.169168 -0.699232,0.06813 -0.311281,-0.101043 -0.456902,-0.434993 -0.146861,-0.336792 -0.0091,-0.633648 0.138395,-0.295435 0.526345,-0.464603 0.387951,-0.169168 0.698612,-0.06955 0.312703,0.100422 0.459563,0.437215 0.145621,0.33395 0.0064,0.631426 -0.137776,0.296855 -0.525726,0.466024 z m -0.120215,-0.275687 q 0.308371,-0.134467 0.404911,-0.320322 0.09796,-0.186475 0.0044,-0.401056 -0.09481,-0.217423 -0.298112,-0.272529 -0.201264,-0.0543 -0.509635,0.08016 -0.298424,0.13013 -0.400648,0.318464 -0.100804,0.187714 -0.0066,0.403716 0.09295,0.213159 0.297675,0.267646 0.206766,0.05529 0.508032,-0.07608 z"
         id="path1147"
         style="fill:#ff00ff" />
      <path
         d="m 83.748472,72.543712 -0.171374,-0.30737 0.420293,-0.869776 -0.0687,-0.123218 -0.690566,0.385025 -0.140421,-0.251853 0.690566,-0.385026 -0.06115,-0.109678 -0.972919,-0.121389 -0.163825,-0.29383 1.117505,0.141949 q -0.0018,-0.08598 0.03452,-0.173669 0.03706,-0.08634 0.145001,-0.201543 0.09471,-0.100731 0.111461,-0.175744 0.01675,-0.07501 -0.04667,-0.188754 l -0.04001,-0.07176 0.219356,-0.122303 0.05209,0.09343 q 0.09361,0.167902 0.08253,0.307204 -0.01108,0.139301 -0.146365,0.294603 -0.02841,0.03181 -0.06463,0.07509 -0.03411,0.04387 -0.05771,0.07477 -0.078,0.102061 -0.08282,0.195276 -0.0027,0.09381 0.04018,0.183493 l 0.655361,-0.365397 0.140421,0.251853 -0.655361,0.365397 q 0.05373,0.08364 0.136321,0.129892 0.08334,0.04761 0.209809,0.03567 0.04216,-0.004 0.09665,-0.01129 0.05525,-0.006 0.09514,-0.014 0.199766,-0.03328 0.324689,0.02842 0.124923,0.0617 0.219292,0.230953 l 0.05209,0.09343 -0.219356,0.122302 -0.04001,-0.07176 q -0.06417,-0.115095 -0.140251,-0.140125 -0.07532,-0.02368 -0.203877,0.0036 -0.141649,0.02928 -0.238795,0.01422 -0.09504,-0.01446 -0.162861,-0.05652 z"
         id="path1149"
         style="fill:#280b0b" />
      <path
         d="m 85.210403,73.281621 -0.275522,-0.09018 0.05739,-0.175332 q -0.04503,0.01299 -0.123338,0.03793 -0.07635,0.02395 -0.143965,0.03118 -0.08034,0.01122 -0.17745,0.0039 -0.09759,-0.0058 -0.218409,-0.04539 -0.222481,-0.07282 -0.32896,-0.270793 -0.10648,-0.197975 -0.03173,-0.426348 0.06125,-0.187119 0.178424,-0.276001 0.119133,-0.08987 0.289646,-0.107468 0.171986,-0.01711 0.390395,0.02828 0.218409,0.04539 0.463901,0.11269 l 0.01399,-0.04273 q 0.03086,-0.0943 0.01723,-0.16727 -0.01216,-0.07249 -0.06247,-0.128107 -0.04784,-0.05318 -0.126494,-0.09197 -0.07865,-0.03879 -0.168528,-0.06821 -0.10903,-0.03569 -0.252752,-0.0501 -0.14324,-0.01589 -0.304001,-0.0082 l -0.01473,-0.0048 0.09211,-0.281415 q 0.08827,0.0044 0.250181,0.02806 0.161912,0.02363 0.310723,0.07234 0.173859,0.05691 0.292398,0.128329 0.120494,0.07043 0.192125,0.170545 0.07064,0.09816 0.08406,0.221628 0.01342,0.123471 -0.03867,0.282595 z m -0.142903,-0.49536 0.14998,-0.45822 q -0.129122,-0.03411 -0.30633,-0.0758 -0.175734,-0.04121 -0.285087,-0.04601 -0.130435,-0.0052 -0.227734,0.04291 -0.09682,0.04661 -0.137808,0.171847 -0.0463,0.141444 0.01553,0.24161 0.06231,0.09869 0.23764,0.15608 0.145865,0.04774 0.285007,0.0313 0.139625,-0.01792 0.268803,-0.06372 z"
         id="path1151" />
      <path
         d="m 87.652816,72.650223 q 0.03251,-0.331724 -0.07953,-0.50782 -0.111884,-0.17764 -0.338691,-0.199865 -0.236064,-0.02313 -0.377972,0.137427 -0.140215,0.159167 -0.171208,0.475462 -0.03205,0.327096 0.08122,0.506429 0.113426,0.177791 0.33869,0.199864 0.225264,0.02207 0.369351,-0.128925 0.145781,-0.152391 0.178136,-0.482572 z m -1.262242,-0.04269 -0.357954,-0.03508 -0.0765,0.780709 -0.290066,-0.02842 0.168879,-1.723423 0.290066,0.02842 -0.06849,0.698935 0.365668,0.03583 q 0.0735,-0.352631 0.302382,-0.526475 0.230579,-0.175235 0.537617,-0.145149 0.356411,0.03493 0.5439,0.299417 0.18749,0.264492 0.146064,0.687247 -0.04097,0.418127 -0.273304,0.643038 -0.232331,0.224911 -0.594913,0.189381 -0.342524,-0.03356 -0.527502,-0.276002 -0.183435,-0.242286 -0.165846,-0.628434 z"
         id="path1153"
         style="fill:#28170b" />
      <path
         d="m 90.478674,72.448856 q -0.145619,0.132622 -0.259403,0.200237 -0.111844,0.06864 -0.233301,0.106172 -0.180704,0.05584 -0.347805,0.05069 -0.167559,-0.0066 -0.308641,-0.07987 -0.141082,-0.07323 -0.25216,-0.217394 -0.109597,-0.144621 -0.176882,-0.362355 -0.122212,-0.395475 0.02422,-0.698726 0.14598,-0.304732 0.526643,-0.422367 0.143675,-0.0444 0.293783,-0.04698 0.15159,-0.003 0.284973,0.01903 l 0.09566,0.309567 -0.01629,0.005 q -0.170248,-0.0626 -0.320598,-0.0713 -0.148869,-0.0092 -0.274769,0.02974 -0.247358,0.07644 -0.332361,0.284443 -0.08352,0.207545 0.0076,0.5023 0.09109,0.294755 0.276224,0.416032 0.185137,0.121277 0.433975,0.04438 0.08739,-0.02701 0.166433,-0.07577 0.08052,-0.04922 0.140635,-0.106742 0.04759,-0.04554 0.09493,-0.102356 0.04837,-0.05876 0.06612,-0.08534 l 0.01629,-0.005 z"
         id="path1155" />
      <path
         d="m 91.924754,71.313562 -0.220789,0.190258 -0.96647,-1.121563 -0.656496,0.565714 0.96647,1.121563 -0.22079,0.190258 -1.130415,-1.311818 1.098075,-0.94623 z"
         id="path1157" />
      <path
         d="m 92.304707,69.182565 -0.661986,1.090722 q 0.136506,0.08285 0.263489,0.103699 0.125658,0.02005 0.234033,-0.01211 0.105441,-0.03031 0.194358,-0.105098 0.08972,-0.07612 0.158895,-0.190093 0.0917,-0.151084 0.124559,-0.339689 0.03234,-0.190735 0.01344,-0.291067 l 0.008,-0.01325 0.271686,0.164893 q -0.0234,0.158078 -0.06725,0.311 -0.04385,0.152923 -0.131523,0.29738 -0.223611,0.368434 -0.547886,0.454527 -0.3256,0.08529 -0.692708,-0.137518 -0.363132,-0.220393 -0.456656,-0.547364 -0.09272,-0.328297 0.103543,-0.65167 0.181785,-0.299518 0.454856,-0.355029 0.273875,-0.05684 0.595923,0.138622 z m -0.338041,0.126702 q -0.196948,-0.117719 -0.36382,-0.0848 -0.166067,0.03159 -0.286721,0.230389 -0.121458,0.200121 -0.0759,0.390985 0.04636,0.18954 0.211651,0.311618 z"
         id="path1159"
         style="fill:#28170b" />
      <path
         d="m 93.809674,68.283165 -0.145936,0.252287 -1.286932,-0.74443 -0.323699,0.559594 q 0.109053,0.06846 0.210055,0.132253 0.101001,0.0638 0.181873,0.115951 0.218673,0.139028 0.340448,0.238125 0.120433,0.09832 0.188819,0.184444 0.06457,0.08034 0.09362,0.150868 0.02848,0.06841 0.04369,0.138104 0.01387,0.06891 0.0014,0.13692 -0.0117,0.06666 -0.04973,0.13242 -0.0132,0.02281 -0.04015,0.06632 -0.02618,0.04217 -0.03395,0.05559 l -0.22008,-0.127306 0.0078,-0.01342 q 0.0062,-0.01074 0.0192,-0.03009 0.01299,-0.01935 0.02075,-0.03277 0.01863,-0.03221 0.02864,-0.07119 0.01079,-0.04033 -7.36e-4,-0.07923 -0.02751,-0.107252 -0.163137,-0.241227 -0.135628,-0.133975 -0.429805,-0.322052 -0.106935,-0.06902 -0.254905,-0.159988 -0.148535,-0.09309 -0.283085,-0.176289 l 0.596941,-1.03196 z"
         id="path1161" />
      <path
         d="m 94.390031,66.594108 q -0.05585,-0.05596 -0.117222,-0.07794 -0.06137,-0.02417 -0.13154,-0.0067 -0.07346,0.01857 -0.138193,0.07222 -0.06363,0.05256 -0.173356,0.162078 l -0.193117,0.192753 0.416172,0.416957 0.188728,-0.188372 q 0.109726,-0.109519 0.161313,-0.178533 0.05049,-0.07011 0.0681,-0.140252 0.01651,-0.07343 -0.0021,-0.131549 -0.01858,-0.06031 -0.07882,-0.120659 z m 0.209582,-0.215758 q 0.08871,0.08888 0.124784,0.197438 0.03717,0.107465 0.02063,0.213783 -0.01766,0.127145 -0.07695,0.232327 -0.0593,0.105181 -0.188771,0.234413 l -0.468528,0.467646 -1.223327,-1.225634 0.206284,-0.205896 0.476408,0.477306 0.26773,-0.267226 q 0.138254,-0.137993 0.228202,-0.199297 0.09105,-0.0624 0.222611,-0.08201 0.110734,-0.01634 0.215932,0.02542 0.105198,0.04176 0.195003,0.131731 z m -0.639204,-1.050784 0.206284,-0.205896 1.223327,1.225634 -0.206284,0.205896 z"
         id="path1163"
         style="fill:#ffcc00" />
      <path
         d="m 96.661451,64.686948 -1.025164,0.759564 q 0.09506,0.128302 0.204741,0.195605 0.108757,0.06606 0.221245,0.07726 0.109074,0.0118 0.219664,-0.02383 0.111837,-0.03656 0.218962,-0.115926 0.142003,-0.105213 0.24372,-0.267403 0.102041,-0.164358 0.122468,-0.26439 l 0.01246,-0.0092 0.189199,0.255357 q -0.08142,0.137503 -0.179819,0.262505 -0.0984,0.125001 -0.234175,0.2256 -0.346288,0.256572 -0.679047,0.213701 -0.333681,-0.04412 -0.58933,-0.389159 -0.252881,-0.341306 -0.21587,-0.67937 0.03826,-0.338986 0.342192,-0.564179 0.281516,-0.20858 0.555309,-0.156752 0.27504,0.05091 0.49931,0.353597 z m -0.360853,-0.01048 q -0.137838,-0.183432 -0.304772,-0.216033 -0.165689,-0.03352 -0.352535,0.104915 -0.188092,0.139361 -0.21806,0.333286 -0.02872,0.193002 0.07816,0.368502 z"
         id="path1165" />
      <path
         d="m 99.740135,64.629485 -0.289008,-0.02278 0.0145,-0.183914 q -0.04071,0.02323 -0.110941,0.0659 -0.06857,0.04125 -0.132578,0.06419 -0.07544,0.02982 -0.171543,0.04557 -0.09623,0.0173 -0.222956,0.0073 -0.23337,-0.01839 -0.383466,-0.185735 -0.150096,-0.167341 -0.131215,-0.406893 0.01547,-0.196278 0.10843,-0.310249 0.09463,-0.115395 0.256203,-0.172639 0.163122,-0.05712 0.386078,-0.06443 0.222955,-0.0073 0.477392,3.06e-4 l 0.0035,-0.04482 q 0.0078,-0.09891 -0.02263,-0.166625 -0.02888,-0.06759 -0.09087,-0.109799 -0.05902,-0.04042 -0.144591,-0.0596 -0.08557,-0.01919 -0.179849,-0.02662 -0.114367,-0.009 -0.257444,0.01081 -0.142955,0.01828 -0.297376,0.06365 l -0.01546,-0.0012 0.02327,-0.295191 q 0.08683,-0.01648 0.249754,-0.03163 0.162925,-0.01515 0.31902,-0.0028 0.182369,0.01437 0.314392,0.05588 0.133689,0.04008 0.226876,0.120519 0.09176,0.07877 0.133872,0.195609 0.04211,0.116841 0.02895,0.283755 z m -0.255509,-0.447792 0.03788,-0.480651 q -0.133522,-0.0027 -0.315564,-0.0015 -0.180496,0.0013 -0.287904,0.02241 -0.127988,0.02568 -0.211232,0.09532 -0.08312,0.06809 -0.09348,0.199461 -0.01169,0.148368 0.07198,0.231162 0.08379,0.08125 0.267706,0.09575 0.153005,0.01206 0.284364,-0.03668 0.131482,-0.05029 0.246245,-0.125215 z"
         id="path1167" />
      <path
         d="m 101.87088,65.312916 q -0.15182,0.146307 -0.31992,0.224334 -0.16698,0.07695 -0.33043,0.08161 -0.1536,0.0059 -0.29619,-0.05043 -0.1404,-0.05632 -0.24798,-0.167948 -0.0936,-0.09712 -0.14876,-0.196813 -0.0541,-0.09858 -0.088,-0.223101 l -0.52242,0.503465 -0.202247,-0.209862 1.706807,-1.644869 0.20225,0.209863 -0.13061,0.125866 q 0.15101,0.01595 0.29794,0.07458 0.14913,0.05867 0.26316,0.177 0.21731,0.22549 0.167,0.515109 -0.0481,0.28966 -0.35062,0.581196 z m -0.21429,-0.211181 q 0.22549,-0.217308 0.26289,-0.40191 0.0374,-0.184602 -0.11643,-0.344231 -0.0871,-0.09042 -0.21443,-0.144304 -0.12728,-0.05388 -0.27159,-0.07628 l -0.70661,0.680969 q 0.0459,0.128031 0.0927,0.205645 0.0479,0.07873 0.12642,0.160219 0.16889,0.175258 0.38189,0.159458 0.21299,-0.0158 0.44518,-0.239561 z"
         id="path1169"
         style="fill:#ffdd55" />
      <path
         d="m 103.36317,66.952209 q -0.0595,0.141472 -0.18196,0.251706 -0.12102,0.109648 -0.31337,0.188115 -0.35887,0.146395 -0.68355,0.0277 -0.32469,-0.118696 -0.45293,-0.433059 -0.0632,-0.155028 -0.0648,-0.306735 -1.8e-4,-0.152292 0.0714,-0.288664 0.0895,-0.170466 0.2728,-0.312207 0.1853,-0.140891 0.48388,-0.262691 0.10765,-0.04392 0.22228,-0.07896 0.11607,-0.03563 0.28573,-0.06298 0.14521,-0.02575 0.29091,-0.02156 0.14629,0.0056 0.2534,0.05067 0.14695,0.06061 0.27862,0.202787 0.1337,0.143031 0.2717,0.411553 0.0563,0.109301 0.10187,0.204569 0.047,0.09468 0.0844,0.169854 l -0.24833,0.101305 q -0.0444,-0.0924 -0.0882,-0.183358 -0.0432,-0.08953 -0.0893,-0.177882 -0.0907,-0.177296 -0.19615,-0.308429 -0.10481,-0.129698 -0.20325,-0.169906 -0.10712,-0.04504 -0.24638,-0.03344 -0.13724,0.01245 -0.25245,0.04606 0.12143,0.07604 0.22523,0.182711 0.10581,0.107524 0.16495,0.252504 0.055,0.134932 0.0615,0.277969 0.006,0.143037 -0.0479,0.272382 z m -0.62297,0.172093 q 0.26556,-0.108332 0.34407,-0.289375 0.0799,-0.181628 -0.006,-0.391203 -0.051,-0.124884 -0.13799,-0.223323 -0.0856,-0.09902 -0.19379,-0.175441 -0.0371,0.01177 -0.087,0.02881 -0.048,0.01789 -0.0881,0.03428 -0.24977,0.101891 -0.38782,0.206761 -0.13804,0.104871 -0.19888,0.218426 -0.0506,0.09765 -0.052,0.188635 4e-5,0.0904 0.0363,0.179394 0.0884,0.216752 0.29466,0.274937 0.20624,0.05819 0.4761,-0.0519 z"
         id="path1171" />
      <path
         d="m 104.13954,68.840097 -2.56126,-0.283645 -0.0899,-0.298349 0.78476,0.100233 1.37872,-1.136149 0.0913,0.302802 -1.07555,0.8796 1.38383,0.143097 z"
         id="path1173" />
      <path
         d="m 103.49302,69.98651 q -0.12807,0.06953 -0.24917,0.05766 -0.12037,-0.01051 -0.22517,-0.07357 -0.10343,-0.0638 -0.18861,-0.162205 -0.0852,-0.09841 -0.14583,-0.210127 -0.0858,-0.158044 -0.1335,-0.317375 -0.0477,-0.15933 -0.0605,-0.332326 l 0.28067,-0.152376 0.01,0.01771 q -0.0332,0.146799 0.003,0.326645 0.0359,0.179846 0.11431,0.324266 0.037,0.06812 0.0884,0.133675 0.0528,0.06481 0.11029,0.102415 0.0638,0.03947 0.12721,0.04912 0.0648,0.0089 0.14384,-0.03399 0.0817,-0.04438 0.11231,-0.105071 0.0313,-0.05933 0.0247,-0.129865 -0.006,-0.06918 -0.0433,-0.151156 -0.0375,-0.08198 -0.073,-0.147378 l -0.12057,-0.222079 0.22071,-0.11983 0.0836,0.153957 q 0.0296,0.0545 0.081,0.139476 0.0522,0.08634 0.0995,0.131222 0.0616,0.05827 0.12605,0.07622 0.0652,0.01931 0.15781,-0.03099 0.064,-0.03477 0.0872,-0.08966 0.0245,-0.05563 0.021,-0.117252 -0.004,-0.06298 -0.0301,-0.130096 -0.0251,-0.06575 -0.051,-0.113434 -0.0755,-0.13897 -0.18683,-0.253141 -0.10927,-0.113548 -0.22968,-0.166369 l -0.01,-0.01771 0.28203,-0.153116 q 0.0982,0.09311 0.19161,0.20997 0.0934,0.116858 0.16371,0.24629 0.0577,0.106271 0.0956,0.221536 0.0386,0.116626 0.0419,0.23306 0.002,0.115071 -0.0468,0.215935 -0.048,0.100125 -0.16513,0.163738 -0.11989,0.06509 -0.25186,0.03972 -0.12986,-0.02475 -0.23743,-0.128648 l -0.01,0.0052 q 0.0421,0.158825 -0.007,0.292973 -0.0475,0.133408 -0.20149,0.216993 z"
         id="path1175" />
      <path
         d="m 103.7964,71.604079 q 0.0767,-0.01914 0.12712,-0.06048 0.0523,-0.04021 0.0734,-0.109382 0.0218,-0.07256 0.009,-0.15566 -0.0124,-0.0816 -0.0499,-0.232016 l -0.0661,-0.264736 -0.57159,0.142612 0.0645,0.258719 q 0.0375,0.150418 0.0702,0.230146 0.0342,0.07935 0.0853,0.130513 0.0545,0.05191 0.1139,0.06585 0.0613,0.01507 0.14401,-0.0056 z m 0.0773,0.290685 q -0.12184,0.0304 -0.2335,0.0055 -0.11128,-0.02336 -0.19397,-0.09221 -0.1,-0.08051 -0.15971,-0.185443 -0.0597,-0.104933 -0.10402,-0.282426 l -0.16026,-0.642286 1.68018,-0.419205 0.0705,0.282786 -0.65432,0.163254 0.0916,0.36702 q 0.0473,0.189527 0.0536,0.298194 0.007,0.110172 -0.0441,0.2331 -0.0429,0.103381 -0.13281,0.172147 -0.0899,0.06877 -0.21324,0.09954 z m 1.22991,-0.0081 0.0706,0.282786 -1.68017,0.419205 -0.0705,-0.282786 z"
         id="path1177"
         style="fill:#ffcc00" />
    </g>
  </g>
</svg>
